<mxfile host="app.diagrams.net" agent="Mozilla/5.0 (Windows NT 10.0; Win64; x64) AppleWebKit/537.36 (KHTML, like Gecko) Chrome/116.0.5845.97 Safari/537.36 Core/1.116.541.400 QQBrowser/19.4.6579.400" version="28.1.2" pages="2">
  <diagram name="合约-整体技术架构" id="liHhjXvMKcARfeGmCZQX">
    <mxGraphModel dx="3395" dy="2175" grid="1" gridSize="10" guides="1" tooltips="1" connect="1" arrows="1" fold="1" page="1" pageScale="1" pageWidth="827" pageHeight="1169" math="0" shadow="0">
      <root>
        <mxCell id="0" />
        <mxCell id="1" parent="0" />
        <mxCell id="WP1BGtDrW7HctJOlxf9Q-52" value="" style="rounded=0;whiteSpace=wrap;html=1;" vertex="1" parent="1">
          <mxGeometry x="-320" y="-220" width="1200" height="170" as="geometry" />
        </mxCell>
        <mxCell id="WP1BGtDrW7HctJOlxf9Q-14" value="" style="rounded=0;whiteSpace=wrap;html=1;" vertex="1" parent="1">
          <mxGeometry x="-320" y="386" width="1200" height="184" as="geometry" />
        </mxCell>
        <mxCell id="WP1BGtDrW7HctJOlxf9Q-35" value="查询/写入/更新/删除" style="edgeStyle=orthogonalEdgeStyle;rounded=0;orthogonalLoop=1;jettySize=auto;html=1;exitX=0.5;exitY=1;exitDx=0;exitDy=0;entryX=0.5;entryY=0;entryDx=0;entryDy=0;fontSize=15;fontStyle=1;strokeWidth=2;" edge="1" parent="1" source="WP1BGtDrW7HctJOlxf9Q-13" target="WP1BGtDrW7HctJOlxf9Q-14">
          <mxGeometry relative="1" as="geometry" />
        </mxCell>
        <mxCell id="WP1BGtDrW7HctJOlxf9Q-13" value="" style="rounded=0;whiteSpace=wrap;html=1;" vertex="1" parent="1">
          <mxGeometry x="-320" y="160" width="1200" height="170" as="geometry" />
        </mxCell>
        <mxCell id="WP1BGtDrW7HctJOlxf9Q-1" value="跟单" style="rounded=1;whiteSpace=wrap;html=1;strokeWidth=2;fontSize=18;fontStyle=1" vertex="1" parent="1">
          <mxGeometry x="-280" y="210" width="160" height="70" as="geometry" />
        </mxCell>
        <mxCell id="WP1BGtDrW7HctJOlxf9Q-2" value="交易" style="rounded=1;whiteSpace=wrap;html=1;strokeWidth=2;fontSize=18;fontStyle=1" vertex="1" parent="1">
          <mxGeometry x="-40" y="210" width="160" height="70" as="geometry" />
        </mxCell>
        <mxCell id="WP1BGtDrW7HctJOlxf9Q-3" value="核心" style="rounded=1;whiteSpace=wrap;html=1;strokeWidth=2;fontSize=18;fontStyle=1" vertex="1" parent="1">
          <mxGeometry x="680" y="210" width="160" height="70" as="geometry" />
        </mxCell>
        <mxCell id="WP1BGtDrW7HctJOlxf9Q-4" value="强平" style="rounded=1;whiteSpace=wrap;html=1;strokeWidth=2;fontSize=18;fontStyle=1" vertex="1" parent="1">
          <mxGeometry x="440" y="210" width="160" height="70" as="geometry" />
        </mxCell>
        <mxCell id="WP1BGtDrW7HctJOlxf9Q-5" value="做市" style="rounded=1;whiteSpace=wrap;html=1;strokeWidth=2;fontSize=18;fontStyle=1" vertex="1" parent="1">
          <mxGeometry x="200" y="210" width="160" height="70" as="geometry" />
        </mxCell>
        <mxCell id="WP1BGtDrW7HctJOlxf9Q-6" value="MYSQL" style="shape=cylinder3;whiteSpace=wrap;html=1;boundedLbl=1;backgroundOutline=1;size=15;fontSize=18;fontStyle=1;strokeWidth=2;" vertex="1" parent="1">
          <mxGeometry x="-260" y="432" width="120" height="80" as="geometry" />
        </mxCell>
        <mxCell id="WP1BGtDrW7HctJOlxf9Q-9" value="Redis" style="shape=cylinder3;whiteSpace=wrap;html=1;boundedLbl=1;backgroundOutline=1;size=15;fontSize=18;fontStyle=1;strokeWidth=2;" vertex="1" parent="1">
          <mxGeometry x="50" y="432" width="120" height="80" as="geometry" />
        </mxCell>
        <mxCell id="WP1BGtDrW7HctJOlxf9Q-11" value="ElasticSearch" style="shape=cylinder3;whiteSpace=wrap;html=1;boundedLbl=1;backgroundOutline=1;size=15;fontSize=18;fontStyle=1;strokeWidth=2;" vertex="1" parent="1">
          <mxGeometry x="320" y="432" width="120" height="80" as="geometry" />
        </mxCell>
        <mxCell id="WP1BGtDrW7HctJOlxf9Q-12" value="SelectDB" style="shape=cylinder3;whiteSpace=wrap;html=1;boundedLbl=1;backgroundOutline=1;size=15;fontSize=18;fontStyle=1;strokeWidth=2;" vertex="1" parent="1">
          <mxGeometry x="670" y="432" width="120" height="80" as="geometry" />
        </mxCell>
        <mxCell id="WP1BGtDrW7HctJOlxf9Q-15" value="" style="rounded=0;whiteSpace=wrap;html=1;" vertex="1" parent="1">
          <mxGeometry x="-320" y="-40" width="1200" height="170" as="geometry" />
        </mxCell>
        <mxCell id="WP1BGtDrW7HctJOlxf9Q-45" style="edgeStyle=orthogonalEdgeStyle;rounded=0;orthogonalLoop=1;jettySize=auto;html=1;exitX=0.5;exitY=1;exitDx=0;exitDy=0;entryX=0.5;entryY=0;entryDx=0;entryDy=0;" edge="1" parent="1" source="WP1BGtDrW7HctJOlxf9Q-16" target="WP1BGtDrW7HctJOlxf9Q-20">
          <mxGeometry relative="1" as="geometry">
            <Array as="points">
              <mxPoint x="-180" y="-60" />
              <mxPoint x="270" y="-60" />
            </Array>
          </mxGeometry>
        </mxCell>
        <mxCell id="WP1BGtDrW7HctJOlxf9Q-16" value="Web" style="ellipse;whiteSpace=wrap;html=1;fontSize=18;fontStyle=1;strokeWidth=2;" vertex="1" parent="1">
          <mxGeometry x="-240" y="-170" width="120" height="80" as="geometry" />
        </mxCell>
        <mxCell id="WP1BGtDrW7HctJOlxf9Q-46" style="edgeStyle=orthogonalEdgeStyle;rounded=0;orthogonalLoop=1;jettySize=auto;html=1;exitX=0.5;exitY=1;exitDx=0;exitDy=0;entryX=0.5;entryY=0;entryDx=0;entryDy=0;" edge="1" parent="1" source="WP1BGtDrW7HctJOlxf9Q-17" target="WP1BGtDrW7HctJOlxf9Q-20">
          <mxGeometry relative="1" as="geometry">
            <mxPoint x="270" y="-30" as="targetPoint" />
            <Array as="points">
              <mxPoint x="43" y="-60" />
              <mxPoint x="270" y="-60" />
            </Array>
          </mxGeometry>
        </mxCell>
        <mxCell id="WP1BGtDrW7HctJOlxf9Q-17" value="App&lt;div&gt;-&lt;/div&gt;&lt;div&gt;Android&lt;/div&gt;" style="ellipse;whiteSpace=wrap;html=1;fontSize=18;fontStyle=1;strokeWidth=2;" vertex="1" parent="1">
          <mxGeometry x="-17" y="-170" width="120" height="80" as="geometry" />
        </mxCell>
        <mxCell id="WP1BGtDrW7HctJOlxf9Q-47" style="edgeStyle=orthogonalEdgeStyle;rounded=0;orthogonalLoop=1;jettySize=auto;html=1;exitX=0.5;exitY=1;exitDx=0;exitDy=0;entryX=0.5;entryY=0;entryDx=0;entryDy=0;" edge="1" parent="1" source="WP1BGtDrW7HctJOlxf9Q-18" target="WP1BGtDrW7HctJOlxf9Q-20">
          <mxGeometry relative="1" as="geometry" />
        </mxCell>
        <mxCell id="WP1BGtDrW7HctJOlxf9Q-18" value="App&lt;div&gt;-&lt;/div&gt;&lt;div&gt;IOS&lt;/div&gt;" style="ellipse;whiteSpace=wrap;html=1;fontSize=18;fontStyle=1;strokeWidth=2;" vertex="1" parent="1">
          <mxGeometry x="210" y="-170" width="120" height="80" as="geometry" />
        </mxCell>
        <mxCell id="WP1BGtDrW7HctJOlxf9Q-27" style="edgeStyle=orthogonalEdgeStyle;rounded=0;orthogonalLoop=1;jettySize=auto;html=1;exitX=0.5;exitY=1;exitDx=0;exitDy=0;entryX=0.5;entryY=0;entryDx=0;entryDy=0;" edge="1" parent="1" source="WP1BGtDrW7HctJOlxf9Q-20" target="WP1BGtDrW7HctJOlxf9Q-24">
          <mxGeometry relative="1" as="geometry" />
        </mxCell>
        <mxCell id="WP1BGtDrW7HctJOlxf9Q-28" style="edgeStyle=orthogonalEdgeStyle;rounded=0;orthogonalLoop=1;jettySize=auto;html=1;exitX=0.25;exitY=1;exitDx=0;exitDy=0;entryX=0.5;entryY=0;entryDx=0;entryDy=0;" edge="1" parent="1" source="WP1BGtDrW7HctJOlxf9Q-20" target="WP1BGtDrW7HctJOlxf9Q-23">
          <mxGeometry relative="1" as="geometry" />
        </mxCell>
        <mxCell id="WP1BGtDrW7HctJOlxf9Q-29" style="edgeStyle=orthogonalEdgeStyle;rounded=0;orthogonalLoop=1;jettySize=auto;html=1;exitX=0.75;exitY=1;exitDx=0;exitDy=0;entryX=0.5;entryY=0;entryDx=0;entryDy=0;" edge="1" parent="1" source="WP1BGtDrW7HctJOlxf9Q-20" target="WP1BGtDrW7HctJOlxf9Q-26">
          <mxGeometry relative="1" as="geometry" />
        </mxCell>
        <mxCell id="WP1BGtDrW7HctJOlxf9Q-20" value="Nginx" style="rounded=1;whiteSpace=wrap;html=1;strokeWidth=2;fontSize=18;fontStyle=1" vertex="1" parent="1">
          <mxGeometry x="190" y="-35" width="160" height="40" as="geometry" />
        </mxCell>
        <mxCell id="WP1BGtDrW7HctJOlxf9Q-32" style="edgeStyle=orthogonalEdgeStyle;rounded=0;orthogonalLoop=1;jettySize=auto;html=1;exitX=0.5;exitY=1;exitDx=0;exitDy=0;entryX=0.5;entryY=0;entryDx=0;entryDy=0;" edge="1" parent="1" source="WP1BGtDrW7HctJOlxf9Q-23" target="WP1BGtDrW7HctJOlxf9Q-1">
          <mxGeometry relative="1" as="geometry" />
        </mxCell>
        <mxCell id="WP1BGtDrW7HctJOlxf9Q-23" value="Gateway-Follower" style="rounded=1;whiteSpace=wrap;html=1;strokeWidth=2;fontSize=18;fontStyle=1" vertex="1" parent="1">
          <mxGeometry x="-250" y="50" width="160" height="70" as="geometry" />
        </mxCell>
        <mxCell id="WP1BGtDrW7HctJOlxf9Q-33" style="edgeStyle=orthogonalEdgeStyle;rounded=0;orthogonalLoop=1;jettySize=auto;html=1;exitX=0.5;exitY=1;exitDx=0;exitDy=0;entryX=0.5;entryY=0;entryDx=0;entryDy=0;" edge="1" parent="1" source="WP1BGtDrW7HctJOlxf9Q-24" target="WP1BGtDrW7HctJOlxf9Q-2">
          <mxGeometry relative="1" as="geometry" />
        </mxCell>
        <mxCell id="WP1BGtDrW7HctJOlxf9Q-24" value="Gateway-User" style="rounded=1;whiteSpace=wrap;html=1;strokeWidth=2;fontSize=18;fontStyle=1" vertex="1" parent="1">
          <mxGeometry x="190" y="50" width="160" height="70" as="geometry" />
        </mxCell>
        <mxCell id="WP1BGtDrW7HctJOlxf9Q-34" style="edgeStyle=orthogonalEdgeStyle;rounded=0;orthogonalLoop=1;jettySize=auto;html=1;exitX=0.5;exitY=1;exitDx=0;exitDy=0;entryX=0.5;entryY=0;entryDx=0;entryDy=0;" edge="1" parent="1" source="WP1BGtDrW7HctJOlxf9Q-26" target="WP1BGtDrW7HctJOlxf9Q-5">
          <mxGeometry relative="1" as="geometry" />
        </mxCell>
        <mxCell id="WP1BGtDrW7HctJOlxf9Q-26" value="Gateway-Maker" style="rounded=1;whiteSpace=wrap;html=1;strokeWidth=2;fontSize=18;fontStyle=1" vertex="1" parent="1">
          <mxGeometry x="640" y="50" width="160" height="70" as="geometry" />
        </mxCell>
        <mxCell id="WP1BGtDrW7HctJOlxf9Q-48" style="edgeStyle=orthogonalEdgeStyle;rounded=0;orthogonalLoop=1;jettySize=auto;html=1;exitX=0.5;exitY=1;exitDx=0;exitDy=0;entryX=0.5;entryY=0;entryDx=0;entryDy=0;" edge="1" parent="1" source="WP1BGtDrW7HctJOlxf9Q-30" target="WP1BGtDrW7HctJOlxf9Q-20">
          <mxGeometry relative="1" as="geometry">
            <Array as="points">
              <mxPoint x="488" y="-60" />
              <mxPoint x="270" y="-60" />
            </Array>
          </mxGeometry>
        </mxCell>
        <mxCell id="WP1BGtDrW7HctJOlxf9Q-30" value="BM&lt;div&gt;Operation&lt;/div&gt;" style="ellipse;whiteSpace=wrap;html=1;fontSize=18;fontStyle=1;strokeWidth=2;" vertex="1" parent="1">
          <mxGeometry x="428" y="-170" width="120" height="80" as="geometry" />
        </mxCell>
        <mxCell id="WP1BGtDrW7HctJOlxf9Q-31" value="Market&lt;span style=&quot;background-color: transparent;&quot;&gt;Maker&lt;/span&gt;&lt;div&gt;-Systems&lt;/div&gt;" style="ellipse;whiteSpace=wrap;html=1;fontSize=18;fontStyle=1;strokeWidth=2;" vertex="1" parent="1">
          <mxGeometry x="680" y="-170" width="120" height="80" as="geometry" />
        </mxCell>
        <mxCell id="WP1BGtDrW7HctJOlxf9Q-36" value="事务" style="rounded=1;whiteSpace=wrap;html=1;fontSize=15;fontStyle=1" vertex="1" parent="1">
          <mxGeometry x="-230" y="432" width="60" height="30" as="geometry" />
        </mxCell>
        <mxCell id="WP1BGtDrW7HctJOlxf9Q-37" value="缓存" style="rounded=1;whiteSpace=wrap;html=1;fontSize=15;fontStyle=1" vertex="1" parent="1">
          <mxGeometry x="80" y="432" width="60" height="30" as="geometry" />
        </mxCell>
        <mxCell id="WP1BGtDrW7HctJOlxf9Q-38" value="查询" style="rounded=1;whiteSpace=wrap;html=1;fontSize=15;fontStyle=1" vertex="1" parent="1">
          <mxGeometry x="350" y="432" width="60" height="30" as="geometry" />
        </mxCell>
        <mxCell id="WP1BGtDrW7HctJOlxf9Q-39" value="统计" style="rounded=1;whiteSpace=wrap;html=1;fontSize=15;fontStyle=1" vertex="1" parent="1">
          <mxGeometry x="700" y="432" width="60" height="30" as="geometry" />
        </mxCell>
        <mxCell id="WP1BGtDrW7HctJOlxf9Q-40" value="DTS-数据同步" style="edgeStyle=orthogonalEdgeStyle;rounded=0;orthogonalLoop=1;jettySize=auto;html=1;exitX=0.855;exitY=1;exitDx=0;exitDy=-4.35;exitPerimeter=0;entryX=0.5;entryY=1;entryDx=0;entryDy=0;entryPerimeter=0;strokeWidth=2;fontSize=15;fontStyle=1" edge="1" parent="1" source="WP1BGtDrW7HctJOlxf9Q-6" target="WP1BGtDrW7HctJOlxf9Q-11">
          <mxGeometry relative="1" as="geometry">
            <Array as="points">
              <mxPoint x="-157" y="532" />
              <mxPoint x="380" y="532" />
            </Array>
          </mxGeometry>
        </mxCell>
        <mxCell id="WP1BGtDrW7HctJOlxf9Q-41" value="Seatunnel CDC-数据同步" style="edgeStyle=orthogonalEdgeStyle;rounded=0;orthogonalLoop=1;jettySize=auto;html=1;exitX=0.5;exitY=1;exitDx=0;exitDy=0;exitPerimeter=0;entryX=0.5;entryY=1;entryDx=0;entryDy=0;entryPerimeter=0;strokeWidth=2;fontSize=15;fontStyle=1" edge="1" parent="1" source="WP1BGtDrW7HctJOlxf9Q-6" target="WP1BGtDrW7HctJOlxf9Q-12">
          <mxGeometry relative="1" as="geometry">
            <Array as="points">
              <mxPoint x="-200" y="550" />
              <mxPoint x="730" y="550" />
            </Array>
          </mxGeometry>
        </mxCell>
        <mxCell id="WP1BGtDrW7HctJOlxf9Q-42" style="edgeStyle=orthogonalEdgeStyle;rounded=0;orthogonalLoop=1;jettySize=auto;html=1;exitX=0.5;exitY=0;exitDx=0;exitDy=0;exitPerimeter=0;entryX=0.145;entryY=0;entryDx=0;entryDy=4.35;entryPerimeter=0;strokeWidth=2;fontSize=15;fontStyle=1" edge="1" parent="1" source="WP1BGtDrW7HctJOlxf9Q-6" target="WP1BGtDrW7HctJOlxf9Q-11">
          <mxGeometry relative="1" as="geometry">
            <Array as="points">
              <mxPoint x="-200" y="412" />
              <mxPoint x="337" y="412" />
            </Array>
          </mxGeometry>
        </mxCell>
        <mxCell id="WP1BGtDrW7HctJOlxf9Q-43" value="Fink CDC+Flink实时计算" style="edgeLabel;html=1;align=center;verticalAlign=middle;resizable=0;points=[];fontSize=15;fontStyle=1" vertex="1" connectable="0" parent="WP1BGtDrW7HctJOlxf9Q-42">
          <mxGeometry x="-0.0385" y="-1" relative="1" as="geometry">
            <mxPoint as="offset" />
          </mxGeometry>
        </mxCell>
        <mxCell id="WP1BGtDrW7HctJOlxf9Q-44" value="定时统计同步" style="edgeStyle=orthogonalEdgeStyle;rounded=0;orthogonalLoop=1;jettySize=auto;html=1;exitX=0.5;exitY=0;exitDx=0;exitDy=0;entryX=0.855;entryY=0;entryDx=0;entryDy=4.35;entryPerimeter=0;strokeWidth=2;fontSize=15;fontStyle=1" edge="1" parent="1" source="WP1BGtDrW7HctJOlxf9Q-39" target="WP1BGtDrW7HctJOlxf9Q-11">
          <mxGeometry relative="1" as="geometry">
            <Array as="points">
              <mxPoint x="730" y="412" />
              <mxPoint x="570" y="412" />
              <mxPoint x="570" y="410" />
              <mxPoint x="423" y="410" />
            </Array>
          </mxGeometry>
        </mxCell>
        <mxCell id="WP1BGtDrW7HctJOlxf9Q-51" style="edgeStyle=orthogonalEdgeStyle;rounded=0;orthogonalLoop=1;jettySize=auto;html=1;exitX=0.5;exitY=1;exitDx=0;exitDy=0;entryX=0.5;entryY=0;entryDx=0;entryDy=0;" edge="1" parent="1" source="WP1BGtDrW7HctJOlxf9Q-31" target="WP1BGtDrW7HctJOlxf9Q-20">
          <mxGeometry relative="1" as="geometry">
            <Array as="points">
              <mxPoint x="740" y="-60" />
              <mxPoint x="270" y="-60" />
            </Array>
          </mxGeometry>
        </mxCell>
        <mxCell id="WP1BGtDrW7HctJOlxf9Q-53" value="展&lt;div&gt;示&lt;/div&gt;&lt;div&gt;层&lt;/div&gt;" style="rounded=0;whiteSpace=wrap;html=1;fontSize=20;fontStyle=1" vertex="1" parent="1">
          <mxGeometry x="-320" y="-180" width="30" height="100" as="geometry" />
        </mxCell>
        <mxCell id="WP1BGtDrW7HctJOlxf9Q-54" value="网关&lt;br&gt;&lt;div&gt;层&lt;/div&gt;" style="rounded=0;whiteSpace=wrap;html=1;fontSize=20;fontStyle=1" vertex="1" parent="1">
          <mxGeometry x="-320" width="30" height="100" as="geometry" />
        </mxCell>
        <mxCell id="WP1BGtDrW7HctJOlxf9Q-55" value="服务层" style="rounded=0;whiteSpace=wrap;html=1;fontSize=20;fontStyle=1" vertex="1" parent="1">
          <mxGeometry x="-320" y="195" width="30" height="100" as="geometry" />
        </mxCell>
        <mxCell id="WP1BGtDrW7HctJOlxf9Q-56" value="数据层" style="rounded=0;whiteSpace=wrap;html=1;fontSize=20;fontStyle=1" vertex="1" parent="1">
          <mxGeometry x="-320" y="422" width="30" height="100" as="geometry" />
        </mxCell>
      </root>
    </mxGraphModel>
  </diagram>
  <diagram id="1JaKYRCS973bzqWJYE_T" name="合约服务层-技术架构">
    <mxGraphModel dx="2539" dy="671" grid="1" gridSize="10" guides="1" tooltips="1" connect="1" arrows="1" fold="1" page="1" pageScale="1" pageWidth="827" pageHeight="1169" math="0" shadow="0">
      <root>
        <mxCell id="0" />
        <mxCell id="1" parent="0" />
        <mxCell id="o49jhhJUDEjz2wbjPP_G-9" value="" style="rounded=0;whiteSpace=wrap;html=1;" vertex="1" parent="1">
          <mxGeometry x="-120" y="630" width="640" height="300" as="geometry" />
        </mxCell>
        <mxCell id="qujjU_kfzsnig_p0ng7J-1" value="follow-center" style="rounded=1;whiteSpace=wrap;html=1;strokeWidth=2;fontSize=18;fontStyle=1" vertex="1" parent="1">
          <mxGeometry x="-390" y="630" width="160" height="70" as="geometry" />
        </mxCell>
        <mxCell id="o49jhhJUDEjz2wbjPP_G-11" value="call&lt;div&gt;apis&lt;/div&gt;" style="edgeStyle=orthogonalEdgeStyle;rounded=0;orthogonalLoop=1;jettySize=auto;html=1;exitX=0.25;exitY=1;exitDx=0;exitDy=0;entryX=0.187;entryY=0;entryDx=0;entryDy=0;entryPerimeter=0;" edge="1" parent="1" source="qujjU_kfzsnig_p0ng7J-2" target="o49jhhJUDEjz2wbjPP_G-9">
          <mxGeometry relative="1" as="geometry" />
        </mxCell>
        <mxCell id="o49jhhJUDEjz2wbjPP_G-18" value="query&lt;div&gt;cache&lt;/div&gt;" style="edgeStyle=orthogonalEdgeStyle;rounded=0;orthogonalLoop=1;jettySize=auto;html=1;exitX=0.5;exitY=1;exitDx=0;exitDy=0;entryX=0.25;entryY=0;entryDx=0;entryDy=0;" edge="1" parent="1" source="qujjU_kfzsnig_p0ng7J-2" target="o49jhhJUDEjz2wbjPP_G-9">
          <mxGeometry relative="1" as="geometry" />
        </mxCell>
        <mxCell id="qujjU_kfzsnig_p0ng7J-2" value="trade-center" style="rounded=1;whiteSpace=wrap;html=1;strokeWidth=2;fontSize=18;fontStyle=1" vertex="1" parent="1">
          <mxGeometry x="-40" y="490" width="160" height="70" as="geometry" />
        </mxCell>
        <mxCell id="qujjU_kfzsnig_p0ng7J-4" value="base-follow" style="rounded=1;whiteSpace=wrap;html=1;strokeWidth=2;fontSize=18;fontStyle=1" vertex="1" parent="1">
          <mxGeometry x="-390" y="745" width="160" height="70" as="geometry" />
        </mxCell>
        <mxCell id="qujjU_kfzsnig_p0ng7J-5" value="&lt;div&gt;&lt;br&gt;&lt;/div&gt;trade-core" style="rounded=1;whiteSpace=wrap;html=1;strokeWidth=2;fontSize=18;fontStyle=1" vertex="1" parent="1">
          <mxGeometry x="130" y="680" width="160" height="70" as="geometry" />
        </mxCell>
        <mxCell id="qujjU_kfzsnig_p0ng7J-7" value="" style="shape=cylinder3;whiteSpace=wrap;html=1;boundedLbl=1;backgroundOutline=1;size=15;rotation=90;" vertex="1" parent="1">
          <mxGeometry x="-80" y="660" width="60" height="110" as="geometry" />
        </mxCell>
        <mxCell id="o49jhhJUDEjz2wbjPP_G-1" value="Redis" style="shape=cylinder3;whiteSpace=wrap;html=1;boundedLbl=1;backgroundOutline=1;size=15;fontSize=18;fontStyle=1;strokeWidth=2;" vertex="1" parent="1">
          <mxGeometry x="380" y="675" width="120" height="80" as="geometry" />
        </mxCell>
        <mxCell id="o49jhhJUDEjz2wbjPP_G-2" value="write&lt;div&gt;cache&lt;/div&gt;" style="edgeStyle=orthogonalEdgeStyle;rounded=0;orthogonalLoop=1;jettySize=auto;html=1;exitX=1;exitY=0.5;exitDx=0;exitDy=0;entryX=0;entryY=0.5;entryDx=0;entryDy=0;entryPerimeter=0;" edge="1" parent="1" source="qujjU_kfzsnig_p0ng7J-5" target="o49jhhJUDEjz2wbjPP_G-1">
          <mxGeometry relative="1" as="geometry" />
        </mxCell>
        <mxCell id="o49jhhJUDEjz2wbjPP_G-3" value="publish&lt;div&gt;event&lt;/div&gt;" style="edgeStyle=orthogonalEdgeStyle;rounded=0;orthogonalLoop=1;jettySize=auto;html=1;exitX=0;exitY=0.5;exitDx=0;exitDy=0;entryX=0.5;entryY=0;entryDx=0;entryDy=0;entryPerimeter=0;" edge="1" parent="1" source="qujjU_kfzsnig_p0ng7J-5" target="qujjU_kfzsnig_p0ng7J-7">
          <mxGeometry relative="1" as="geometry" />
        </mxCell>
        <mxCell id="o49jhhJUDEjz2wbjPP_G-4" value="APIs" style="rounded=1;whiteSpace=wrap;html=1;fontSize=18;fontStyle=1" vertex="1" parent="1">
          <mxGeometry x="150" y="655" width="120" height="25" as="geometry" />
        </mxCell>
        <mxCell id="o49jhhJUDEjz2wbjPP_G-5" value="Event" style="text;html=1;align=center;verticalAlign=middle;whiteSpace=wrap;rounded=0;fontSize=18;fontStyle=1" vertex="1" parent="1">
          <mxGeometry x="-90" y="700" width="60" height="30" as="geometry" />
        </mxCell>
        <mxCell id="o49jhhJUDEjz2wbjPP_G-6" value="consume event" style="edgeStyle=orthogonalEdgeStyle;rounded=0;orthogonalLoop=1;jettySize=auto;html=1;exitX=1;exitY=0.75;exitDx=0;exitDy=0;entryX=0;entryY=0.564;entryDx=0;entryDy=0;entryPerimeter=0;" edge="1" parent="1" source="qujjU_kfzsnig_p0ng7J-4" target="o49jhhJUDEjz2wbjPP_G-9">
          <mxGeometry relative="1" as="geometry" />
        </mxCell>
        <mxCell id="o49jhhJUDEjz2wbjPP_G-7" value="MySQL" style="shape=cylinder3;whiteSpace=wrap;html=1;boundedLbl=1;backgroundOutline=1;size=15;fontSize=18;fontStyle=1;strokeWidth=2;" vertex="1" parent="1">
          <mxGeometry x="150" y="830" width="120" height="80" as="geometry" />
        </mxCell>
        <mxCell id="o49jhhJUDEjz2wbjPP_G-8" value="upsert&lt;div&gt;data&lt;/div&gt;" style="edgeStyle=orthogonalEdgeStyle;rounded=0;orthogonalLoop=1;jettySize=auto;html=1;exitX=0.5;exitY=1;exitDx=0;exitDy=0;entryX=0.5;entryY=0;entryDx=0;entryDy=0;entryPerimeter=0;" edge="1" parent="1" source="qujjU_kfzsnig_p0ng7J-5" target="o49jhhJUDEjz2wbjPP_G-7">
          <mxGeometry relative="1" as="geometry" />
        </mxCell>
        <mxCell id="o49jhhJUDEjz2wbjPP_G-15" value="call&lt;div&gt;apis&lt;/div&gt;" style="edgeStyle=orthogonalEdgeStyle;rounded=0;orthogonalLoop=1;jettySize=auto;html=1;exitX=0.5;exitY=1;exitDx=0;exitDy=0;entryX=0.75;entryY=0;entryDx=0;entryDy=0;" edge="1" parent="1" source="o49jhhJUDEjz2wbjPP_G-12" target="o49jhhJUDEjz2wbjPP_G-9">
          <mxGeometry relative="1" as="geometry" />
        </mxCell>
        <mxCell id="o49jhhJUDEjz2wbjPP_G-12" value="bonus-center" style="rounded=1;whiteSpace=wrap;html=1;strokeWidth=2;fontSize=18;fontStyle=1" vertex="1" parent="1">
          <mxGeometry x="280" y="490" width="160" height="70" as="geometry" />
        </mxCell>
        <mxCell id="o49jhhJUDEjz2wbjPP_G-14" value="call apis" style="edgeStyle=orthogonalEdgeStyle;rounded=0;orthogonalLoop=1;jettySize=auto;html=1;exitX=1;exitY=0.25;exitDx=0;exitDy=0;" edge="1" parent="1" source="qujjU_kfzsnig_p0ng7J-4">
          <mxGeometry relative="1" as="geometry">
            <mxPoint x="-120" y="762" as="targetPoint" />
          </mxGeometry>
        </mxCell>
        <mxCell id="o49jhhJUDEjz2wbjPP_G-16" value="query cache" style="edgeStyle=orthogonalEdgeStyle;rounded=0;orthogonalLoop=1;jettySize=auto;html=1;exitX=1;exitY=0.25;exitDx=0;exitDy=0;entryX=0.001;entryY=0.052;entryDx=0;entryDy=0;entryPerimeter=0;" edge="1" parent="1" source="qujjU_kfzsnig_p0ng7J-1" target="o49jhhJUDEjz2wbjPP_G-9">
          <mxGeometry relative="1" as="geometry" />
        </mxCell>
        <mxCell id="o49jhhJUDEjz2wbjPP_G-17" value="query data" style="edgeStyle=orthogonalEdgeStyle;rounded=0;orthogonalLoop=1;jettySize=auto;html=1;exitX=1;exitY=0.75;exitDx=0;exitDy=0;entryX=0.001;entryY=0.175;entryDx=0;entryDy=0;entryPerimeter=0;" edge="1" parent="1" source="qujjU_kfzsnig_p0ng7J-1" target="o49jhhJUDEjz2wbjPP_G-9">
          <mxGeometry relative="1" as="geometry" />
        </mxCell>
        <mxCell id="o49jhhJUDEjz2wbjPP_G-19" value="query&lt;div&gt;data&lt;/div&gt;" style="edgeStyle=orthogonalEdgeStyle;rounded=0;orthogonalLoop=1;jettySize=auto;html=1;exitX=0.75;exitY=1;exitDx=0;exitDy=0;" edge="1" parent="1" source="qujjU_kfzsnig_p0ng7J-2">
          <mxGeometry relative="1" as="geometry">
            <mxPoint x="80" y="630" as="targetPoint" />
          </mxGeometry>
        </mxCell>
        <mxCell id="o49jhhJUDEjz2wbjPP_G-20" value="强平" style="rounded=1;whiteSpace=wrap;html=1;strokeWidth=2;fontSize=18;fontStyle=1" vertex="1" parent="1">
          <mxGeometry x="640" y="680" width="160" height="70" as="geometry" />
        </mxCell>
        <mxCell id="o49jhhJUDEjz2wbjPP_G-21" value="consume event" style="edgeStyle=orthogonalEdgeStyle;rounded=0;orthogonalLoop=1;jettySize=auto;html=1;exitX=0;exitY=0.25;exitDx=0;exitDy=0;" edge="1" parent="1" source="o49jhhJUDEjz2wbjPP_G-20">
          <mxGeometry relative="1" as="geometry">
            <mxPoint x="520" y="698" as="targetPoint" />
          </mxGeometry>
        </mxCell>
        <mxCell id="o49jhhJUDEjz2wbjPP_G-22" value="call apis" style="edgeStyle=orthogonalEdgeStyle;rounded=0;orthogonalLoop=1;jettySize=auto;html=1;exitX=0;exitY=0.5;exitDx=0;exitDy=0;entryX=0.999;entryY=0.283;entryDx=0;entryDy=0;entryPerimeter=0;" edge="1" parent="1" source="o49jhhJUDEjz2wbjPP_G-20" target="o49jhhJUDEjz2wbjPP_G-9">
          <mxGeometry relative="1" as="geometry" />
        </mxCell>
        <mxCell id="o49jhhJUDEjz2wbjPP_G-23" value="query cache" style="edgeStyle=orthogonalEdgeStyle;rounded=0;orthogonalLoop=1;jettySize=auto;html=1;exitX=0;exitY=0.75;exitDx=0;exitDy=0;entryX=0.999;entryY=0.344;entryDx=0;entryDy=0;entryPerimeter=0;" edge="1" parent="1" source="o49jhhJUDEjz2wbjPP_G-20" target="o49jhhJUDEjz2wbjPP_G-9">
          <mxGeometry relative="1" as="geometry" />
        </mxCell>
        <mxCell id="o49jhhJUDEjz2wbjPP_G-24" value="query data" style="edgeStyle=orthogonalEdgeStyle;rounded=0;orthogonalLoop=1;jettySize=auto;html=1;exitX=0.5;exitY=1;exitDx=0;exitDy=0;entryX=1;entryY=0.464;entryDx=0;entryDy=0;entryPerimeter=0;" edge="1" parent="1" source="o49jhhJUDEjz2wbjPP_G-20" target="o49jhhJUDEjz2wbjPP_G-9">
          <mxGeometry relative="1" as="geometry" />
        </mxCell>
        <mxCell id="o49jhhJUDEjz2wbjPP_G-25" value="做市" style="rounded=1;whiteSpace=wrap;html=1;strokeWidth=2;fontSize=18;fontStyle=1" vertex="1" parent="1">
          <mxGeometry x="640" y="815" width="160" height="70" as="geometry" />
        </mxCell>
      </root>
    </mxGraphModel>
  </diagram>
</mxfile>
